<?xml version="1.0" encoding="utf-8"?>
<!-- Generator: Adobe Illustrator 24.1.3, SVG Export Plug-In . SVG Version: 6.00 Build 0)  -->
<svg version="1.1" xmlns="http://www.w3.org/2000/svg" xmlns:xlink="http://www.w3.org/1999/xlink" x="0px" y="0px"
	 viewBox="0 0 1920 554" style="enable-background:new 0 0 1920 554;" xml:space="preserve">
<style type="text/css">
	.st0{fill:#FFEF01;}
	.st1{fill:#E10079;}
	.st2{fill:#FFFFFF;}
</style>
<g id="Calque_1">
	<g>
		<rect class="st0" width="1920" height="1080"/>
	</g>
</g>
<g id="Calque_2">
	<rect class="st1" width="16" height="1080"/>
	<rect x="16" class="st2" width="16" height="1080"/>
	<rect x="32" class="st1" width="16" height="1080"/>
	<rect x="48" class="st2" width="16" height="1080"/>
	<rect x="64" class="st1" width="16" height="1080"/>
	<rect x="80" class="st2" width="16" height="1080"/>
	<rect x="1904" transform="matrix(-1 -1.224647e-16 1.224647e-16 -1 3824 1080)" class="st1" width="16" height="1080"/>
	<rect x="1888" transform="matrix(-1 -1.224647e-16 1.224647e-16 -1 3792 1080)" class="st2" width="16" height="1080"/>
	<rect x="1872" transform="matrix(-1 -1.224647e-16 1.224647e-16 -1 3760 1080)" class="st1" width="16" height="1080"/>
	<rect x="1856" transform="matrix(-1 -1.224647e-16 1.224647e-16 -1 3728 1080)" class="st2" width="16" height="1080"/>
	<rect x="1840" transform="matrix(-1 -1.224647e-16 1.224647e-16 -1 3696 1080)" class="st1" width="16" height="1080"/>
	<rect x="1824" transform="matrix(-1 -1.224647e-16 1.224647e-16 -1 3664 1080)" class="st2" width="16" height="1080"/>
</g>
</svg>
